<?xml version="1.0" standalone="no"?>
<!DOCTYPE svg PUBLIC "-//W3C//DTD SVG 20010904//EN"
 "http://www.w3.org/TR/2001/REC-SVG-20010904/DTD/svg10.dtd">
<svg version="1.0" xmlns="http://www.w3.org/2000/svg"
 width="1135.000000pt" height="151.000000pt" viewBox="0 0 1135.000000 151.000000"
 preserveAspectRatio="xMidYMid meet">
<metadata>
Created by potrace 1.15, written by Peter Selinger 2001-2017
</metadata>
<g transform="translate(0.000000,151.000000) scale(0.100000,-0.100000)"
fill="#000000" stroke="none">
<path d="M652 1324 c-11 -23 -8 -31 34 -85 l46 -60 -189 -291 c-173 -268 -193
-296 -253 -343 -130 -100 -122 -91 -115 -125 l7 -30 228 0 229 0 19 28 c10 15
40 66 67 115 l49 87 53 0 c29 0 53 -2 53 -5 0 -3 -9 -46 -20 -96 -29 -128 -28
-129 141 -129 219 0 272 22 328 134 30 60 32 70 21 92 -9 17 -22 24 -42 24
-19 0 -28 5 -28 16 0 13 30 200 65 412 5 28 9 32 39 32 44 0 58 18 95 123 48
138 84 127 -405 127 l-411 0 -11 -26z m818 -11 c0 -14 -53 -158 -63 -170 -5
-7 -27 -13 -48 -13 -35 0 -39 -2 -44 -32 -37 -221 -75 -460 -75 -472 0 -12 10
-16 41 -16 40 0 41 -1 34 -28 -14 -60 -56 -113 -103 -135 -61 -27 -332 -39
-332 -15 0 8 9 54 20 104 29 133 33 124 -59 124 -92 0 -81 9 -170 -148 l-53
-92 -204 0 c-113 0 -204 4 -204 9 0 5 39 40 88 78 87 69 88 71 274 359 103
159 190 297 193 305 3 9 -13 39 -39 74 -25 33 -46 63 -46 68 0 4 178 7 395 7
217 0 395 -3 395 -7z"/>
<path d="M955 1009 c-32 -57 -67 -119 -78 -136 l-19 -33 54 0 55 0 27 125 c15
68 26 130 24 136 -2 7 -31 -35 -63 -92z"/>
<path d="M1610 1331 c-15 -29 -13 -34 25 -84 19 -25 35 -52 35 -61 0 -8 -50
-144 -111 -303 l-111 -288 -75 -74 c-69 -68 -75 -76 -67 -100 l9 -26 160 -3
c199 -4 252 6 309 58 23 22 53 61 66 89 22 48 22 51 6 76 -9 14 -25 25 -36 25
-11 0 -20 3 -20 6 0 3 61 152 136 332 116 278 134 329 125 349 l-11 23 -214 0
c-203 0 -216 -1 -226 -19z m420 -22 c0 -5 -63 -162 -140 -348 -77 -185 -140
-342 -140 -349 0 -7 16 -12 40 -12 44 0 47 -6 24 -53 -28 -55 -75 -97 -128
-112 -52 -16 -346 -22 -346 -8 0 4 31 39 69 78 l69 70 102 265 c56 146 111
286 121 312 l18 46 -39 50 c-22 28 -40 55 -40 61 0 8 59 11 195 11 131 0 195
-3 195 -11z"/>
<path d="M4639 1323 c-10 -28 -10 -29 68 -113 l33 -36 -110 -274 -110 -275
-91 -91 c-85 -85 -89 -92 -80 -117 l11 -27 400 0 c444 0 436 -1 510 66 47 42
67 78 117 207 34 90 39 133 19 192 -6 16 0 23 24 33 17 8 41 28 54 45 28 38
96 212 96 246 0 15 -24 50 -66 97 l-66 74 -399 0 -399 0 -11 -27z m851 -74
l63 -70 -39 -101 c-47 -122 -80 -160 -153 -178 l-50 -12 40 -37 c22 -22 39
-47 39 -60 0 -24 -56 -174 -89 -238 -25 -51 -93 -110 -140 -123 -42 -12 -781
-14 -781 -2 0 4 38 45 85 92 l85 84 96 241 c53 132 105 261 115 287 l18 47
-54 64 c-30 35 -55 67 -55 71 0 3 170 6 379 6 l378 0 63 -71z"/>
<path d="M5031 1050 c-17 -43 -31 -82 -31 -85 0 -3 38 -5 83 -5 l84 0 26 68
c14 37 29 75 33 85 6 15 -2 17 -79 17 l-86 0 -30 -80z"/>
<path d="M4900 726 c-16 -35 -32 -75 -36 -90 l-6 -26 85 0 85 0 33 82 c19 45
36 86 37 90 2 4 -35 8 -83 8 l-86 0 -29 -64z"/>
<path d="M9999 1298 c-27 -25 -133 -273 -124 -288 4 -6 -18 -10 -53 -10 -76 0
-171 -45 -202 -96 -30 -48 -160 -373 -160 -400 0 -13 20 -40 50 -68 l50 -47
278 3 c268 3 278 4 316 26 21 13 40 22 41 20 1 -2 8 -13 14 -26 11 -22 15 -22
187 -22 187 0 215 6 280 55 28 21 31 22 27 6 -3 -11 0 -29 7 -41 11 -21 16
-22 153 -18 122 3 148 6 183 25 49 26 82 63 108 121 17 37 17 46 6 67 -8 15
-22 25 -36 25 -21 0 -21 3 22 112 24 61 44 120 44 132 0 12 -22 45 -49 74
l-48 52 -356 0 -356 0 -15 -27 c-13 -26 -12 -30 29 -83 l43 -56 -44 -119 c-41
-109 -50 -125 -105 -180 l-60 -60 32 58 c29 55 30 59 15 82 -9 14 -26 25 -37
25 -13 0 -19 5 -16 13 3 6 31 76 62 155 52 129 56 146 45 168 -13 23 -16 24
-139 24 -121 1 -125 1 -96 17 131 69 167 226 65 287 -43 25 -131 22 -161 -6z
m149 -33 c41 -34 48 -73 24 -122 -23 -43 -53 -74 -97 -96 -35 -17 -153 -42
-161 -34 -12 11 89 238 114 258 35 27 84 24 120 -6z m147 -307 c4 -10 -50
-159 -122 -335 -4 -9 6 -13 30 -13 20 0 39 -5 42 -10 13 -22 -51 -114 -100
-145 l-48 -30 -258 -3 -257 -3 -47 44 -46 45 16 38 c9 22 42 102 72 179 65
162 108 216 185 233 68 15 528 15 533 0z m810 -29 c25 -23 45 -50 45 -59 0
-10 -20 -70 -45 -134 -25 -64 -45 -121 -45 -126 0 -6 14 -10 30 -10 39 0 46
-19 25 -62 -45 -88 -93 -110 -252 -116 -109 -4 -123 -3 -123 12 0 9 34 100 75
203 41 103 75 193 75 201 0 10 -19 12 -77 10 l-78 -3 -46 -115 c-26 -63 -45
-118 -42 -122 2 -5 20 -8 39 -8 19 0 34 -5 34 -10 0 -17 -37 -83 -59 -107 -48
-51 -75 -58 -253 -61 -93 -2 -168 0 -168 4 0 5 31 40 69 79 64 64 73 79 111
180 23 61 46 120 50 132 7 17 0 33 -35 79 -30 41 -40 61 -32 66 7 4 157 8 335
8 l322 0 45 -41z m-265 -127 c0 -8 -24 -69 -66 -171 -15 -35 -15 -35 -30 -13
-8 12 -24 22 -34 22 -19 0 -19 1 0 50 50 126 45 120 89 120 23 0 41 -4 41 -8z"/>
<path d="M9881 826 c-12 -14 -111 -254 -111 -268 0 -5 30 -8 67 -6 l68 3 56
135 c32 74 55 138 53 142 -9 14 -121 9 -133 -6z"/>
<path d="M3038 1253 c-18 -21 -78 -171 -78 -193 0 -8 7 -23 15 -34 13 -17 22
-18 87 -11 40 3 88 13 108 21 50 21 105 79 130 137 19 42 20 53 9 73 -12 23
-17 24 -134 24 -104 0 -124 -3 -137 -17z m242 -33 c0 -24 -41 -89 -74 -118
-20 -17 -52 -36 -73 -41 -35 -10 -143 -16 -143 -8 0 2 12 32 26 68 15 35 30
74 35 87 8 21 14 22 119 22 69 0 110 -4 110 -10z"/>
<path d="M2132 969 c-40 -20 -68 -42 -82 -65 -30 -48 -160 -373 -160 -400 0
-13 20 -40 50 -68 l50 -47 278 3 c266 3 278 4 315 26 21 12 40 22 41 22 2 0 7
-12 10 -26 l7 -25 172 3 c150 3 177 6 214 24 l41 21 11 -24 c10 -23 12 -23
186 -23 188 0 216 6 281 55 28 21 31 22 27 6 -3 -11 0 -29 7 -41 11 -21 16
-22 153 -18 122 3 148 6 183 25 49 26 82 63 108 121 17 37 17 46 6 67 -8 15
-22 25 -36 25 -21 0 -21 3 22 112 24 61 44 120 44 132 0 12 -22 45 -49 74
l-48 52 -356 0 -356 0 -15 -27 c-13 -26 -12 -30 29 -83 l43 -55 -45 -120 c-39
-107 -50 -126 -99 -175 l-55 -55 22 47 c20 42 21 50 9 73 -8 15 -22 25 -35 25
-21 0 -19 9 43 160 59 147 64 163 52 186 l-14 24 -190 -2 -191 -3 -9 -27 c-8
-23 -4 -33 32 -76 l41 -49 -49 -128 c-50 -130 -63 -152 -113 -187 l-29 -21 22
43 c20 39 20 43 5 66 -8 13 -25 24 -36 24 -13 0 -19 5 -16 13 3 6 31 76 62
155 52 129 56 146 45 168 l-13 24 -277 0 -277 0 -61 -31z m593 -11 c4 -10 -50
-159 -122 -335 -4 -9 6 -13 30 -13 20 0 39 -5 42 -10 13 -22 -51 -114 -100
-145 l-48 -30 -258 -3 -257 -3 -47 44 -46 45 16 38 c9 22 42 102 72 179 65
162 108 216 185 233 68 15 528 15 533 0z m441 -2 c3 -7 -24 -86 -60 -174 -37
-88 -66 -165 -66 -171 0 -6 14 -11 30 -11 40 0 46 -19 21 -68 -28 -55 -71 -88
-131 -101 -59 -13 -300 -15 -300 -3 0 4 31 36 69 70 74 66 69 57 157 289 l23
61 -40 51 c-22 28 -38 55 -34 61 4 6 68 10 166 10 125 0 161 -3 165 -14z m809
-27 c25 -23 45 -50 45 -59 0 -10 -20 -70 -45 -134 -25 -64 -45 -121 -45 -126
0 -6 14 -10 30 -10 39 0 46 -19 25 -62 -45 -88 -93 -110 -252 -116 -109 -4
-123 -3 -123 12 0 9 34 100 75 203 41 103 75 193 75 201 0 10 -19 12 -77 10
l-78 -3 -46 -115 c-26 -63 -45 -118 -42 -122 2 -5 20 -8 39 -8 19 0 34 -5 34
-10 0 -17 -37 -83 -59 -107 -48 -51 -75 -58 -253 -61 -93 -2 -168 0 -168 4 0
5 31 40 69 79 64 64 73 79 111 180 23 61 46 120 50 132 7 17 0 33 -35 79 -30
41 -40 61 -32 66 7 4 157 8 335 8 l322 0 45 -41z m-265 -127 c0 -8 -24 -69
-66 -171 -15 -35 -15 -35 -30 -13 -8 12 -24 22 -34 22 -19 0 -19 1 0 50 50
126 45 120 89 120 23 0 41 -4 41 -8z"/>
<path d="M2311 826 c-12 -14 -111 -254 -111 -268 0 -5 30 -8 67 -6 l68 3 56
135 c32 74 55 138 53 142 -9 14 -121 9 -133 -6z"/>
<path d="M5662 969 c-40 -20 -68 -42 -82 -65 -30 -48 -160 -373 -160 -400 0
-13 20 -40 50 -68 l50 -47 278 3 c268 3 278 4 316 26 21 13 40 22 41 20 1 -2
8 -13 14 -26 12 -23 13 -23 200 -20 l188 3 49 30 c38 24 57 45 83 95 31 59 33
66 20 89 -8 14 -24 28 -36 31 -21 5 -21 5 11 85 28 71 35 80 60 83 26 3 27 1
22 -25 -3 -17 0 -35 8 -46 12 -16 29 -17 142 -15 l129 3 29 60 c40 84 38 98
-25 161 l-53 54 -328 0 -327 0 -15 -27 c-13 -26 -12 -30 29 -83 l42 -55 -49
-125 c-43 -110 -55 -132 -104 -180 l-55 -55 32 58 c29 55 30 59 15 82 -9 14
-26 25 -37 25 -13 0 -19 5 -16 13 3 6 31 76 62 155 52 129 56 146 45 168 l-13
24 -277 0 -277 0 -61 -31z m593 -11 c4 -10 -50 -159 -122 -335 -4 -9 6 -13 30
-13 20 0 39 -5 42 -10 13 -22 -51 -114 -100 -145 l-48 -30 -258 -3 -257 -3
-47 44 -46 45 16 38 c9 22 42 102 72 179 65 162 108 216 185 233 68 15 528 15
533 0z m768 -37 l51 -48 -26 -59 -25 -59 -113 -3 -112 -3 6 26 c3 14 9 36 12
51 l7 25 -64 -3 -64 -3 -46 -115 c-26 -63 -45 -118 -42 -122 2 -5 20 -8 39 -8
19 0 34 -5 34 -10 0 -17 -37 -83 -59 -107 -48 -51 -75 -58 -253 -61 -93 -2
-168 0 -168 4 0 5 31 40 69 79 38 38 73 84 79 100 5 17 28 76 50 132 l40 102
-43 58 c-30 40 -40 60 -32 65 7 4 146 8 310 8 l298 0 52 -49z"/>
<path d="M5841 826 c-12 -14 -111 -254 -111 -268 0 -5 30 -8 67 -6 l68 3 56
135 c32 74 55 138 53 142 -9 14 -121 9 -133 -6z"/>
<path d="M7106 973 c-13 -26 -12 -30 29 -83 l42 -55 -48 -125 c-47 -119 -53
-128 -120 -195 -64 -63 -70 -72 -62 -95 l9 -25 190 0 191 0 49 30 c38 24 57
45 83 95 31 59 33 66 20 89 -8 14 -24 28 -36 31 -21 5 -21 5 11 85 28 71 35
80 60 83 26 3 27 1 22 -25 -3 -17 0 -35 8 -46 12 -16 29 -17 142 -15 l129 3
29 60 c40 84 38 98 -25 161 l-53 54 -328 0 -327 0 -15 -27z m697 -52 l51 -48
-26 -59 -25 -59 -113 -3 -112 -3 6 26 c3 14 9 36 12 51 l7 25 -64 -3 -64 -3
-46 -115 c-26 -63 -45 -118 -42 -122 2 -5 20 -8 39 -8 19 0 34 -5 34 -10 0
-17 -37 -83 -59 -107 -48 -51 -75 -58 -253 -61 -93 -2 -168 0 -168 4 0 5 31
40 69 79 38 38 73 84 79 100 5 17 28 76 50 132 l40 102 -43 58 c-30 40 -40 60
-32 65 7 4 146 8 310 8 l298 0 52 -49z"/>
<path d="M8072 969 c-40 -20 -68 -42 -82 -65 -30 -48 -160 -373 -160 -400 0
-13 20 -40 50 -68 l49 -46 263 0 c281 1 308 5 371 53 18 14 48 53 66 87 31 58
32 62 17 85 -9 14 -26 25 -37 25 -13 0 -19 5 -16 13 3 6 31 76 62 155 52 129
56 146 45 168 l-13 24 -277 0 -277 0 -61 -31z m593 -11 c4 -10 -50 -159 -122
-335 -4 -9 6 -13 30 -13 20 0 39 -5 42 -10 13 -22 -51 -114 -100 -145 l-48
-30 -258 -3 -257 -3 -47 44 -46 45 16 38 c9 22 42 102 72 179 65 162 108 216
185 233 68 15 528 15 533 0z"/>
<path d="M8251 826 c-12 -14 -111 -254 -111 -268 0 -5 30 -8 67 -6 l68 3 56
135 c32 74 55 138 53 142 -9 14 -121 9 -133 -6z"/>
<path d="M8935 976 c-27 -13 -62 -37 -77 -53 -30 -31 -168 -370 -168 -412 0
-13 16 -41 37 -65 l38 -41 -50 -3 c-85 -4 -94 -9 -115 -57 -24 -57 -18 -76 48
-138 l51 -47 191 0 c228 0 264 7 329 66 54 49 66 73 236 501 78 196 87 225 77
248 l-12 25 -267 0 c-261 0 -269 -1 -318 -24z m562 -14 c16 -10 -234 -630
-274 -680 -17 -20 -47 -47 -69 -59 -37 -21 -50 -23 -244 -23 l-206 0 -43 44
c-43 44 -44 45 -31 78 8 18 19 36 24 40 6 4 60 8 120 8 l109 0 -6 -30 -6 -30
64 0 65 0 25 50 c14 27 25 52 25 55 0 3 -55 5 -123 5 l-123 0 -43 44 -42 43
70 183 c39 101 80 194 93 207 27 29 70 53 113 64 40 9 487 11 502 1z"/>
<path d="M9094 832 c-9 -6 -114 -271 -114 -288 0 -3 30 -4 67 -2 l67 3 53 138
c29 76 51 143 47 148 -6 11 -104 12 -120 1z"/>
</g>
</svg>
